<svg viewBox="0 0 86.4359 81.7847" xmlns="http://www.w3.org/2000/svg" xmlns:xlink="http://www.w3.org/1999/xlink" id="Layer_1" overflow="hidden"><defs><clipPath id="clip-path" transform="translate(-6.011 -5.68754)"><rect x="0" y="0" width="98.4579" height="93.1598" fill="none"/></clipPath></defs><g clip-path="url(#clip-path)"><path d="M39.136 60.699 62.296 29.101 46.159 0 21.639 44.215 39.136 60.699Z" fill="#3B4A91"/><path d="M39.701 76.023 19.586 57.073 5.882 81.785 86.436 81.785 64.488 42.207 39.701 76.023Z" fill="#59EABC"/><path d="M2.373 81.779 0 80.416 18.413 46.709 38.907 66.56 71.792 21.798 73.997 23.418 39.256 70.705 19.035 51.12 2.373 81.779Z" fill="#798C99"/><path d="M74.572 31.998 71.703 31.7 72.619 22.901 64.302 26.312 63.208 23.643 75.988 18.403 74.572 31.998Z" fill="#798C99"/></g></svg>